PathFileType	4	(X/Y/Z)	OpenSim_Sub10_CSBaseline_Accel.trc
DataRate	CameraRate	NumFrames	NumMarkers	Units	OrigDataRate	OrigDataStartFrame	OrigNumFrames
100	100	34	8	m	100	4556	9111
Frame#	Time	torso_imu_offset_imu	pelvis_imu_offset_imu	tibia_r_imu_offset_imu	femur_r_imu_offset_imu	tibia_l_imu_offset_imu	femur_l_imu_offset_imu	toes_r_imu_offset_imu	toes_l_imu_offset_imu
				X1	Y1	Z1	X2	Y2	Z2	X3	Y3	Z3	X4	Y4	Z4	X5	Y5	Z5	X6	Y6	Z6	X7	Y7	Z7	X8		Y8	Z8	

4556	45.55000000	10.02987905	-0.13229540	6.85496718	9.84819538	0.07091543	3.99867117	8.15018796	10.62051282	-2.35614916	8.04702029	2.58424277	-0.56847030	12.44397293	1.14590569	1.15192246	9.81167292	1.59853448	-0.84352855	5.19205866	-0.21591983	8.81791087	10.58322885	0.39051984	10.56839404
4557	45.56000000	9.68994233	-0.29903937	6.70683850	9.85981754	0.22864672	4.20917710	10.03205526	10.57654363	-1.60565931	7.81640102	3.14511091	-0.67318652	12.09061746	1.54391218	0.84793393	9.41853190	1.21939821	-0.46175502	5.49818260	-0.10611334	8.64270738	11.87120053	2.64025938	13.32245325
4558	45.57000000	9.30663656	-0.40593970	6.57589835	9.77435765	0.42828421	4.43805649	11.60786377	8.98939412	-0.46219351	8.56059586	2.97515258	-0.56608592	11.63083680	0.84653263	0.98173421	9.08874991	1.24029023	-0.18258791	5.06651057	-0.14404736	8.90947125	7.96556671	3.53015117	12.79633266
4559	45.58000000	8.96642599	-0.43529688	6.45215631	9.61170363	0.70036231	4.61467278	11.35909498	6.13160018	0.84011636	9.78790582	2.40447336	-0.78120117	11.02923461	-0.97298553	0.99737438	9.00212178	0.84494361	0.06273865	4.77350368	-0.35262508	9.02211900	7.16216786	0.96067220	11.18266064
4560	45.59000000	8.68088480	-0.55315103	6.36896775	9.35678741	1.03975202	4.66373889	10.29250607	2.84264524	0.90410823	10.76787791	1.66776003	-1.07073727	10.51187170	-2.78396805	0.52021064	9.11666191	0.40512873	-0.03788610	4.83752402	0.20196496	8.99100490	9.47860444	3.31942594	12.10245824
4561	45.60000000	8.43567160	-0.68258062	6.21619093	9.04092703	1.26214833	4.64144988	10.08452823	0.25084585	0.31802627	10.82758440	0.89840767	-1.29336041	10.36182252	-4.38333131	0.18937201	8.95621622	0.08614711	-0.38829016	5.17781630	0.08976619	8.84952364	12.80909230	5.13650683	12.47813549
4562	45.61000000	8.24247729	-0.89330980	5.99716818	8.68374042	1.38984374	4.49966708	10.63487458	-1.62846806	0.48644557	10.36630151	-0.11029932	-1.27219743	10.17514849	-5.83011629	-0.00487630	9.09592185	-0.58417605	-0.45770416	5.23440684	0.07053157	8.76348741	17.36405198	0.69518275	12.27559629
4563	45.62000000	7.99697271	-0.94263365	6.06464808	8.47213949	1.42802285	4.43526330	10.75512399	-3.44136918	0.63574412	9.68274360	-1.27882367	-1.29926133	9.80346178	-7.61390243	-0.26821488	10.07578002	-0.72864267	-0.63149043	4.89788629	-0.08002768	8.82657391	16.65892169	5.93175727	13.41327307
4564	45.63000000	7.84626702	-1.07938260	6.03386307	8.29758751	1.56117758	4.29069764	10.22086597	-4.45039090	0.09486562	9.22585777	-2.30556022	-1.05163269	9.32830431	-9.57921161	-1.34732480	9.99262977	-1.12632992	-0.28916319	5.01637212	-0.08163878	8.83368906	14.79460740	5.42697845	12.38205642
4565	45.64000000	7.85855889	-1.11546301	6.00309435	8.32363828	1.64909234	4.18926057	9.60568352	-4.07232231	-0.14207364	8.95979035	-3.05961463	-0.80201861	8.21987181	-11.70733476	-2.87011305	10.70311640	-0.95371207	-0.32386423	4.85356358	-0.17171540	8.94872378	9.88016711	-0.45136208	11.72835798
4566	45.65000000	7.97772718	-1.08835739	5.99915922	8.25904661	1.66092581	4.08090750	9.28484044	-2.42782699	-0.09265874	8.70906829	-3.59872135	-0.65144379	5.93483897	-12.56332731	-3.54185944	11.99882074	-0.69900739	-0.08236115	5.20427079	-0.21481973	8.73337144	8.31736042	-4.99770134	21.02559101
4567	45.66000000	8.19648065	-1.13275650	6.01646851	8.24541089	1.67878930	4.08353727	9.44962681	-0.07673103	-0.50287913	8.51562834	-3.77133103	-0.55530406	3.79293370	-11.00094079	-2.00581496	11.33524901	0.42936996	0.21041580	5.00953458	-0.80724515	8.68156836	19.72030029	-5.23114815	23.95898629
4568	45.67000000	8.35269977	-1.08824245	6.11389975	8.36668508	1.55742911	4.09717462	9.79030548	2.44328596	-0.99064085	8.36261103	-3.45159288	-0.55116137	2.22045238	-9.37891762	-0.11385140	12.70132385	0.80169409	0.23532483	4.82727229	-0.41618362	8.85042790	2.81029169	4.04888655	19.91389754
4569	45.68000000	8.47602577	-0.97326590	6.25637958	8.61439178	1.39573296	3.93472006	9.98582605	4.61454447	-1.19352826	8.29973402	-2.72882736	-0.47523049	1.43965479	-8.04001757	1.02413811	12.34793275	2.24462105	0.11355880	4.88909165	-0.48562739	8.80665734	-0.31013971	6.80877750	16.60723768
4570	45.69000000	8.67319018	-0.78284693	6.34435596	8.93091152	1.31575900	3.75504610	10.04020871	5.86938866	-0.96498365	8.35087436	-1.76131571	-0.49146957	1.25221443	-7.60007550	1.96468652	11.71955974	3.27880937	-0.05997274	5.10518151	-0.36712408	8.55978711	-0.77824083	3.79551564	13.87014045
4571	45.70000000	8.87516307	-0.64014347	6.40531863	9.18425333	1.27696074	3.47933867	9.95410159	5.64274089	-0.63745938	8.51061912	-0.65132223	-0.78150206	1.08799335	-7.46115808	2.62998363	10.80099016	4.07860671	-0.11969301	5.04759044	-0.19699756	8.73966482	0.36192107	1.43572586	13.35415085
4572	45.71000000	8.97499158	-0.38605032	6.45473465	9.32110262	1.35569043	3.20310934	9.77642487	4.49212081	-0.37771766	8.74645300	0.39618049	-0.90025279	1.04555806	-7.02729677	2.72589144	9.74353032	4.33475453	-0.01351615	4.84581013	-0.11643178	8.85226277	0.29788757	1.11728148	12.82179021
4573	45.72000000	8.87504751	-0.16638629	6.49741141	9.31335314	1.45765552	3.05664923	9.88402975	2.94942094	-0.14127517	8.92601081	1.16561202	-0.91334438	1.35050942	-6.19582166	2.72461867	9.00435487	4.10237316	0.40204905	4.84486316	-0.18637800	8.80466411	-0.07253623	2.19143483	12.31620777
4574	45.73000000	8.66074918	-0.14301246	6.41253751	9.14654177	1.53307686	2.95193676	10.14031240	1.53694650	0.13216239	9.08165313	1.55356122	-0.88584297	1.89177727	-5.27998847	2.76965653	8.70742600	4.96729333	0.66830084	4.87274163	-0.16668543	8.70976743	-0.37437580	2.72001294	11.96371505
4575	45.74000000	8.45698720	-0.09757476	6.39876232	8.85933384	1.62756244	2.87402985	10.18242003	0.51235888	0.29642531	9.13934141	1.67569719	-0.82461357	2.53174078	-4.56077453	2.69498637	8.54649037	4.43396937	1.01148017	4.94913071	0.08609014	8.74789351	-0.08559498	1.76967555	11.49375235
4576	45.75000000	8.47549215	-0.01456068	6.43468534	8.65905643	1.69936423	2.81514517	9.99954463	0.05577925	0.32072396	9.21108266	1.45942612	-0.72828316	2.96504534	-4.50439415	2.75445059	8.71661620	4.51167955	1.27750406	4.80028393	-0.05489643	8.76574527	0.41640985	0.54044807	11.19868791
4577	45.76000000	8.62058816	0.12550924	6.39745847	8.43532141	1.69591619	2.77080929	9.71155842	0.06095655	0.26331326	9.35935222	1.08193026	-0.65305765	3.15461590	-4.74146498	2.87881818	8.77630714	4.25646032	1.28927545	4.63655515	-0.11268573	8.83898232	0.69808422	-0.32947200	11.02086780
4578	45.77000000	8.60410513	0.11717045	6.41680351	8.35126766	1.72891371	2.79959934	9.67996146	0.60952651	0.58515238	9.41655874	0.67031066	-0.43527061	3.21788669	-4.85519196	2.86444349	8.40224891	4.21233456	1.11142056	4.53102811	-0.01200571	9.00351815	0.94961979	-0.50681698	11.03859372
4579	45.78000000	8.38529531	0.09865122	6.42185316	8.29771296	1.85504295	2.81679277	9.97375262	0.95951679	0.44315661	9.42487679	0.27892234	-0.19467589	3.15695350	-4.54298929	2.61219201	8.94265286	4.12567985	1.23848996	5.06640854	0.06641823	8.66630180	1.21110902	-0.75466420	11.12633049
4580	45.79000000	8.17632742	0.02278864	6.42415347	8.27537215	1.93848636	2.76443167	10.22165617	1.08337717	0.20225861	9.26838091	0.06829208	0.03688634	3.35512894	-4.25420840	2.35286673	8.35169734	4.13638692	1.08214195	4.86518219	-0.10622680	8.64657846	1.97466448	-1.03271495	11.53148121
4581	45.80000000	7.93621042	-0.00917553	6.40161233	8.35510255	2.01635954	2.78846563	10.16616430	1.53914775	0.05919598	9.16647605	-0.05359430	0.05932418	3.70306054	-4.33210312	2.05862189	8.30471733	3.70909506	0.86832504	4.72739049	-0.17943565	8.75314806	2.89816445	-1.29309954	12.02911776
4582	45.81000000	7.96433216	-0.12793710	6.34173523	8.44317706	2.07220814	2.75910177	9.93467862	2.07182429	-0.15713445	9.08269058	-0.19851420	-0.01640707	4.13613360	-4.63504750	1.76616272	7.99520643	3.72745197	0.65608451	4.59483202	-0.24524913	8.74860327	3.92869944	-1.54704137	12.57344534
4583	45.82000000	7.96500400	-0.13849391	6.40481772	8.49921701	2.21142533	2.72032167	9.74383233	2.07622547	-0.06665725	9.08379097	-0.39429713	-0.15525137	4.80409703	-5.17356303	1.29880957	7.71914174	3.41997360	0.43363317	4.90191056	-0.16730607	8.54815805	4.97568113	-1.71317886	13.17538020
4584	45.83000000	7.92893105	-0.10476677	6.53564864	8.62187770	2.25556884	2.69625513	9.71452374	1.53464683	0.17373139	8.95541366	-0.58481888	-0.32270476	5.40250305	-5.74774843	0.65319072	7.68216411	3.16683359	0.24910544	4.73446398	-0.03026154	8.80618846	5.95691735	-1.78485011	13.84783172
4585	45.84000000	7.86367950	-0.08565463	6.66302640	8.62715732	2.31489062	2.61342772	9.92831632	0.50741821	0.00101055	8.80885344	-0.81447886	-0.50364391	6.45418598	-5.76700240	0.72289179	7.31181746	3.28523156	0.01339201	4.78750911	-0.12185874	8.73736188	6.64918281	-2.13301987	14.58161078
4586	45.85000000	7.80363154	0.00381037	6.66376713	8.68584803	2.39025568	2.54974971	10.23303016	-0.42058696	-0.30420587	8.74836640	-0.92972571	-0.69907830	7.91875458	-5.49061124	1.25390802	7.36752848	3.11277304	-0.05492611	4.74939325	-0.32429074	8.74175100	7.21542014	-2.37071863	14.62361106
4587	45.86000000	7.96700908	0.00572310	6.72021573	8.70361607	2.33866048	2.48277637	10.32440933	-1.20279615	-0.30741536	8.79720771	-1.02707172	-0.76340420	8.92683285	-4.95360154	1.74431335	7.26006250	3.09281202	-0.20550502	4.88345015	-0.29564843	8.62155464	7.29495158	-2.38362879	14.46776476
4588	45.87000000	8.06940956	-0.04698799	6.74535105	8.67595169	2.30647418	2.37791433	9.95433037	-1.89041263	-0.33918234	8.87604503	-1.05834045	-0.78353689	9.24850426	-4.59903769	1.78480330	7.03867678	2.88245086	-0.25789707	4.90325018	-0.06791652	8.74200440	8.31898112	-1.26883105	14.96287751
4589	45.88000000	8.11078626	-0.12668286	6.82090695	8.47868936	2.28665261	2.30036482	9.69247681	-2.28694797	-0.05022649	8.95348833	-1.08034183	-0.70540905	9.97471393	-4.43266888	1.45365630	6.68486616	2.70151776	-0.15372215	4.70959180	-0.17831452	8.74533787	11.88530723	0.90682357	16.71540509
